<?xml version="1.0" standalone="no"?>
<!DOCTYPE svg PUBLIC "-//W3C//DTD SVG 20010904//EN"
 "http://www.w3.org/TR/2001/REC-SVG-20010904/DTD/svg10.dtd">
<svg version="1.0" xmlns="http://www.w3.org/2000/svg"
 width="1182.000000pt" height="1198.000000pt" viewBox="0 0 1182.000000 1198.000000"
 preserveAspectRatio="xMidYMid meet">

<g transform="translate(0.000000,1198.000000) scale(0.100000,-0.100000)"
fill="#1fa138" stroke="none">
<path d="M5520 10894 c-429 -29 -716 -76 -1096 -180 l-132 -36 57 -57 c417
-417 330 -1097 -177 -1396 -91 -53 -242 -103 -342 -113 l-75 -7 -3 -1826 -2
-1825 117 -42 c396 -141 805 -212 1232 -212 145 0 459 17 469 25 2 2 -29 43
-68 91 -88 109 -228 316 -304 448 -440 764 -593 1663 -431 2541 188 1017 805
1918 1699 2479 l86 54 -78 11 c-303 43 -700 61 -952 45z"/>
<path d="M6508 10771 c-940 -573 -1580 -1543 -1733 -2626 -52 -373 -47 -784
15 -1152 103 -608 367 -1197 755 -1680 76 -95 43 -90 290 -42 583 114 1109
359 1583 738 118 94 333 291 356 325 14 23 16 98 16 768 l0 743 -87 17 c-231
45 -419 212 -489 435 -25 80 -29 218 -10 306 50 224 234 415 456 472 92 24
261 17 350 -14 197 -69 358 -245 405 -442 19 -82 19 -219 0 -294 -38 -148
-143 -294 -270 -374 -71 -45 -182 -86 -260 -96 l-50 -7 0 -725 0 -725 38 44
c169 191 358 460 476 675 464 847 575 1881 301 2813 l-19 65 -124 81 c-415
275 -886 492 -1365 630 -127 36 -317 80 -512 119 -18 4 -51 -10 -122 -54z"/>
<path d="M8682 9948 c4 -9 22 -78 41 -155 74 -295 107 -567 107 -898 0 -262
-10 -396 -46 -612 -114 -691 -396 -1290 -866 -1840 l-78 -91 -3 -977 -2 -977
40 7 c22 3 64 17 94 30 29 14 55 25 57 25 2 0 4 -114 4 -254 l0 -253 38 -7
c20 -3 58 -6 85 -6 l47 0 0 265 0 265 245 0 245 0 0 -75 0 -76 49 50 c28 27
76 62 108 77 49 25 70 29 138 29 185 -1 295 -114 333 -339 8 -50 15 -92 17
-93 3 -4 142 35 245 69 116 38 305 112 423 168 216 100 551 306 560 344 3 11
21 90 41 175 167 710 174 1456 20 2177 -203 951 -685 1825 -1382 2505 -204
200 -576 510 -560 467z"/>
<path d="M2744 9872 c-56 -42 -152 -120 -213 -172 l-111 -94 0 -401 0 -400 22
45 c32 64 102 130 178 167 67 32 108 42 290 68 58 8 119 17 137 21 l32 6 -5
-38 c-37 -277 -132 -405 -340 -459 -65 -17 -231 -20 -282 -6 l-32 10 0 -1132
0 -1132 92 -90 93 -90 85 -1 c61 0 102 -6 144 -22 32 -12 61 -24 63 -26 3 -3
-16 -31 -42 -63 l-47 -58 33 -28 c178 -150 582 -389 829 -490 l35 -14 -2 1816
-3 1816 -72 7 c-156 15 -345 98 -469 205 -177 152 -296 379 -311 595 l-3 38
-101 -78z"/>
<path d="M1936 9094 c-152 -185 -316 -419 -434 -614 l-51 -86 24 -142 c61
-360 195 -755 362 -1072 58 -111 163 -290 169 -290 2 0 4 172 4 383 l0 382
-68 1 c-52 1 -83 8 -128 28 -114 52 -154 113 -162 248 -3 49 -2 88 1 88 4 0
30 -9 59 -19 29 -10 77 -26 107 -36 69 -21 134 -65 166 -113 l25 -37 0 683 c0
375 -1 682 -2 682 -2 -1 -34 -39 -72 -86z"/>
<path d="M1374 8250 c-147 -288 -224 -468 -314 -740 -345 -1033 -345 -2130 0
-3160 414 -1235 1293 -2253 2455 -2845 865 -440 1836 -616 2805 -510 775 85
1556 370 2205 804 972 650 1667 1593 2010 2729 6 21 -1 18 -67 -25 -298 -201
-704 -385 -1063 -481 l-70 -19 -3 -382 -2 -381 -235 0 -235 0 0 339 0 339 -42
-4 c-24 -3 -62 -7 -85 -10 l-43 -5 0 -330 0 -329 -245 0 -245 0 0 329 0 328
-61 7 c-34 3 -73 6 -85 6 l-24 0 0 -335 0 -335 -245 0 -245 0 0 379 0 379 -72
19 -73 20 -3 -399 -2 -398 -338 0 c-372 0 -405 4 -514 62 -115 61 -222 207
-264 359 -25 90 -25 318 0 409 36 130 146 298 221 338 11 6 18 12 15 14 -3 2
-63 42 -135 89 -247 163 -509 386 -680 578 l-90 102 -65 -6 c-349 -29 -546
-30 -807 -4 -263 26 -561 91 -825 180 -80 27 -149 49 -152 49 -3 0 -6 -133 -6
-295 l0 -295 125 0 125 0 0 -557 c-1 -741 -8 -815 -98 -914 -67 -75 -127 -102
-237 -107 -140 -6 -246 36 -347 140 -44 45 -110 162 -123 218 l-6 25 104 0
c119 0 139 10 157 74 6 22 10 248 10 579 l0 542 123 0 122 0 -2 307 -2 308
-145 66 c-227 104 -471 249 -673 400 l-92 69 -52 -55 c-28 -30 -76 -67 -106
-81 -48 -24 -62 -26 -133 -22 l-80 5 0 -1199 0 -1198 80 0 81 0 -3 -87 -3 -88
-280 0 -280 0 -5 1790 -5 1790 -56 90 c-251 405 -434 878 -508 1320 l-18 110
-49 -95z m3436 -3789 c135 -42 218 -127 267 -275 l27 -81 4 -427 3 -428 -245
0 -246 0 0 40 0 41 -45 -31 c-89 -62 -200 -78 -280 -41 -63 28 -122 102 -147
184 -54 178 17 367 167 445 63 32 174 40 253 19 l54 -15 -7 37 c-7 42 -30 76
-69 105 -23 18 -42 21 -125 21 -93 0 -100 -2 -177 -40 -43 -22 -82 -41 -86
-43 -10 -5 -10 349 0 364 13 20 107 73 176 99 152 57 342 68 476 26z m1304 -6
c48 -23 102 -94 121 -158 19 -64 19 -180 1 -241 -34 -112 -111 -176 -210 -176
-68 0 -115 20 -163 67 -18 19 -37 31 -43 28 -5 -3 -19 -31 -31 -63 -22 -54
-23 -73 -27 -364 l-4 -308 -244 0 -244 0 0 615 0 615 245 0 245 0 0 -121 0
-122 34 69 c79 157 199 216 320 159z m-3209 -674 c80 -37 131 -121 142 -235
l6 -65 -114 -3 -114 -3 37 -37 c27 -28 44 -38 68 -38 35 0 100 27 100 41 0 5
5 9 10 9 6 0 10 -21 10 -48 0 -160 -263 -223 -376 -89 -117 138 -86 389 56
464 53 28 120 30 175 4z m2363 -647 c23 -16 31 -67 11 -79 -7 -5 -3 -14 10
-26 26 -24 27 -60 4 -82 -10 -8 -40 -17 -68 -18 l-50 -3 -3 112 -3 112 38 0
c21 0 49 -7 61 -16z m212 -90 c28 -59 50 -111 50 -117 0 -17 -27 12 -40 43
-12 28 -16 30 -65 30 -49 0 -53 -2 -65 -30 -13 -31 -40 -60 -40 -43 0 14 98
223 105 223 3 0 28 -48 55 -106z m177 91 c29 -21 34 -51 13 -78 -19 -24 -19
-24 16 -75 37 -55 39 -62 24 -62 -5 0 -22 19 -36 43 -31 50 -51 67 -78 67 -18
0 -21 -6 -21 -50 0 -27 -4 -51 -10 -52 -6 -2 -11 41 -13 110 l-3 112 43 0 c24
0 53 -7 65 -15z m523 5 c0 -5 -18 -10 -40 -10 l-40 0 0 -100 c0 -60 -4 -100
-10 -100 -6 0 -10 40 -10 100 l0 100 -40 0 c-22 0 -40 5 -40 10 0 6 37 10 90
10 53 0 90 -4 90 -10z m83 -2 c3 -7 26 -57 51 -110 25 -54 41 -100 36 -103 -5
-3 -18 12 -30 35 -20 39 -22 40 -70 40 -47 0 -50 -2 -64 -34 -14 -34 -36 -56
-36 -37 0 16 94 221 101 221 4 0 9 -6 12 -12z m215 -4 c23 -16 31 -67 11 -79
-7 -5 -3 -14 10 -26 26 -24 27 -60 4 -82 -10 -8 -40 -17 -68 -18 l-50 -3 -3
112 -3 112 38 0 c21 0 49 -7 61 -16z m212 -90 c28 -59 50 -111 50 -117 0 -17
-27 12 -40 43 -12 28 -16 30 -65 30 -49 0 -53 -2 -65 -30 -13 -31 -40 -60 -40
-43 0 14 98 223 105 223 3 0 28 -48 55 -106z m214 96 c14 -5 26 -14 26 -20 0
-7 -8 -8 -22 -3 -39 14 -96 8 -117 -11 -41 -38 -32 -132 14 -150 26 -9 84 -7
106 4 15 8 19 7 19 -4 0 -24 -66 -40 -111 -27 -51 15 -79 53 -79 106 0 86 80
137 164 105z m501 -15 c44 -43 23 -85 -46 -94 l-44 -6 -3 -47 c-2 -27 -7 -48
-13 -48 -5 0 -9 48 -9 110 l0 110 45 0 c35 0 52 -6 70 -25z m153 9 c26 -18 29
-59 7 -84 -13 -14 -11 -22 20 -68 37 -55 40 -62 25 -62 -5 0 -24 21 -41 48
-38 54 -46 62 -74 62 -18 0 -21 -6 -20 -47 0 -27 -4 -50 -10 -53 -6 -3 -11 37
-13 108 l-3 112 43 0 c24 0 54 -7 66 -16z m197 7 c3 -6 -17 -11 -46 -13 l-52
-3 -1 -38 -1 -37 48 0 c26 0 47 -4 47 -10 0 -5 -20 -10 -44 -10 l-44 0 -4 -40
-4 -40 54 0 c35 0 52 -4 50 -11 -2 -7 -28 -12 -63 -12 l-60 0 -3 112 -3 111
60 0 c33 0 62 -4 66 -9z m119 3 c9 -3 16 -12 16 -19 0 -10 -6 -11 -29 -2 -23
8 -33 8 -45 -2 -29 -25 -19 -49 32 -73 48 -23 58 -41 48 -83 -12 -47 -116 -55
-116 -8 0 13 3 14 12 5 17 -17 63 -15 78 3 18 22 6 41 -39 65 -43 21 -66 53
-55 73 25 43 57 57 98 41z m150 0 c9 -3 16 -12 16 -19 0 -10 -6 -11 -29 -2
-60 22 -86 -40 -28 -69 73 -37 87 -77 40 -114 -29 -23 -66 -21 -92 5 -19 18
-6 32 13 16 8 -7 27 -11 43 -9 22 2 29 9 31 30 3 22 -3 30 -30 44 -72 36 -83
61 -46 101 21 23 51 29 82 17z m181 -3 c3 -6 -17 -11 -46 -13 l-52 -3 -1 -38
-1 -37 48 0 c61 0 62 -18 1 -22 -47 -3 -47 -3 -48 -41 l-1 -37 53 0 c35 0 52
-4 50 -11 -2 -7 -28 -12 -63 -12 l-60 0 -3 112 -3 111 60 0 c33 0 62 -4 66 -9z
m385 -91 l0 -100 56 0 c35 0 54 -4 52 -11 -2 -6 -7 -10 -11 -10 -4 1 -32 1
-62 1 l-55 0 0 110 c0 67 4 110 10 110 6 0 10 -40 10 -100z m290 85 c66 -34
78 -115 26 -173 -30 -32 -40 -37 -79 -37 -113 0 -160 122 -77 198 35 31 84 36
130 12z m230 5 c0 -5 -18 -10 -40 -10 l-40 0 0 -100 c0 -60 -4 -100 -10 -100
-6 0 -10 40 -10 100 l0 100 -40 0 c-22 0 -40 5 -40 10 0 6 37 10 90 10 53 0
90 -4 90 -10z m159 -4 c58 -31 78 -100 44 -157 -17 -29 -67 -59 -98 -59 -32 0
-86 33 -100 61 -54 103 51 208 154 155z m-3365 -72 c22 -21 20 -40 -6 -58 -39
-28 -84 20 -52 55 21 23 38 24 58 3z m1233 -11 c13 -19 12 -24 -7 -43 -19 -19
-24 -20 -43 -7 -28 19 -32 40 -11 61 21 21 42 17 61 -11z m1273 12 c15 -18 6
-61 -16 -69 -24 -9 -54 12 -54 37 0 43 44 63 70 32z"/>
<path d="M4500 3697 c-98 -49 -38 -229 67 -202 48 12 53 22 53 110 l0 83 -31
11 c-41 14 -58 14 -89 -2z"/>
<path d="M2836 3638 c-29 -42 -21 -58 29 -58 36 0 45 3 45 18 0 24 -28 62 -45
62 -8 0 -21 -10 -29 -22z"/>
<path d="M5190 3090 c0 -37 2 -40 29 -40 16 0 34 7 41 15 16 19 4 52 -23 59
-42 11 -47 7 -47 -34z"/>
<path d="M5190 2990 c0 -40 0 -40 40 -40 29 0 42 5 50 20 14 27 -19 60 -60 60
-28 0 -30 -2 -30 -40z"/>
<path d="M5402 3065 l-22 -45 45 0 45 0 -21 43 c-12 23 -22 43 -23 44 -1 2
-12 -18 -24 -42z"/>
<path d="M5579 3128 c0 -2 -1 -20 -2 -41 -2 -35 0 -37 29 -37 55 0 76 52 28
70 -24 9 -53 13 -55 8z"/>
<path d="M6233 3069 l-19 -44 34 -3 c19 -2 36 -1 38 1 2 2 -4 23 -15 47 l-19
43 -19 -44z"/>
<path d="M6400 3090 c0 -37 2 -40 29 -40 16 0 34 7 41 15 16 19 4 52 -23 59
-42 11 -47 7 -47 -34z"/>
<path d="M6400 2990 c0 -40 0 -40 40 -40 29 0 42 5 50 20 14 27 -19 60 -60 60
-28 0 -30 -2 -30 -40z"/>
<path d="M6612 3065 l-22 -45 44 0 44 0 -20 43 c-11 23 -21 43 -22 44 -1 2
-12 -18 -24 -42z"/>
<path d="M7317 3123 c-4 -3 -7 -22 -7 -40 0 -34 0 -34 43 -31 36 3 42 6 45 27
3 15 -3 30 -14 38 -19 14 -56 17 -67 6z"/>
<path d="M7479 3128 c0 -2 -1 -20 -2 -41 -2 -35 0 -37 29 -37 55 0 76 52 28
70 -24 9 -53 13 -55 8z"/>
<path d="M8784 3120 c-28 -11 -54 -48 -54 -78 0 -30 25 -78 45 -86 33 -12 83
-6 109 15 21 16 26 29 26 62 -1 75 -58 115 -126 87z"/>
<path d="M9169 3115 c-32 -17 -53 -65 -44 -97 28 -90 147 -93 179 -4 11 31
-13 85 -44 101 -36 18 -57 18 -91 0z"/>
<path d="M2420 6164 l0 -147 34 44 c18 25 52 58 75 74 l42 28 -73 74 c-40 40
-74 73 -75 73 -2 0 -3 -66 -3 -146z"/>
<path d="M7669 6187 c-509 -495 -1187 -839 -1904 -967 -66 -12 -122 -23 -123
-25 -10 -10 351 -355 468 -449 168 -135 429 -309 450 -301 40 16 128 35 160
35 34 0 128 -20 163 -35 16 -7 17 5 17 169 l0 176 245 0 245 0 0 -358 0 -358
64 -17 c35 -9 69 -17 75 -17 8 0 11 66 11 210 0 116 2 210 4 210 2 0 28 -11
59 -25 31 -15 84 -28 121 -32 l66 -6 0 952 c0 523 -1 951 -2 951 -2 -1 -55
-51 -119 -113z"/>
<path d="M8716 4079 c-23 -18 -26 -27 -26 -81 l0 -61 61 7 c34 3 73 6 85 6 20
0 24 5 24 34 0 46 -18 94 -40 106 -30 16 -76 11 -104 -11z"/>
<path d="M6771 3965 c-70 -59 -61 -224 14 -259 18 -9 51 -16 74 -16 l41 0 0
136 0 135 -35 15 c-47 19 -59 18 -94 -11z"/>
</g>
</svg>
